<svg width="1000" height="650" xml:space="preserve" xmlns="http://www.w3.org/2000/svg">
  <style>
    .st0{fill:#213f77}.st1{fill:#fff}
  </style>
  <path class="st0" d="M0 0h1000v650H0z"/>
  <path class="st0" d="M450.9 93.7h97.5v462.5h-97.5z"/>
  <path class="st0" d="M118.5 275H881v100H118.5z"/>
  <path class="st1" d="M454.6 93.7h90v462.5h-90z"/>
  <path class="st1" d="M124.7 278.7h750v92.5h-750z"/>
  <path class="st0" d="m499.7 232.4 17.7 49.8 47.7-22.7-22.7 47.7 49.8 17.7-49.8 17.7 22.7 47.8-47.7-22.7-17.7 49.7-17.7-49.7-47.7 22.7 22.6-47.8-49.7-17.7 49.7-17.7-22.6-47.7 47.7 22.7 17.7-49.8M124.6 239.3l16.4 46.1 44.2-21-21 44.2 46.1 16.3-46.1 16.4 21 44.2-44.2-21-16.4 46.1-16.3-46.1-44.2 21 21-44.2L39 324.9l46.1-16.3-21-44.2 44.2 21 16.3-46.1M874.6 239.3l16.4 46.1 44.1-21-21 44.2 46.1 16.3-46.1 16.4 21 44.2-44.1-21-16.4 46.1-16.4-46.1-44.2 21 21-44.2-46.1-16.4 46.1-16.3-21-44.2 44.2 21 16.4-46.1M499.7 8.1l16.4 46.1 44.1-21-21 44.2 46.1 16.3-46.1 16.4 21 44.2-44.1-21-16.4 46.1-16.4-46.1-44.2 21 21-44.2-46-16.4 46-16.3-21-44.2 44.2 21 16.4-46.1M499.7 470.6l16.4 46 44.1-21-21 44.2 46.1 16.4-46.1 16.4 21 44.1-44.1-21-16.4 46.1-16.4-46.1-44.2 21 21-44.1-46-16.4 46-16.4-21-44.2 44.2 21 16.4-46"/>
  <path class="st1" d="m499.7 243.7 15.5 43.7 41.9-19.9-19.9 41.9 43.7 15.5-43.7 15.6 19.9 41.9-41.9-19.9-15.5 43.7-15.6-43.7-41.9 19.9 19.9-41.9-43.7-15.6 43.7-15.5-19.9-41.9 41.9 19.9 15.6-43.7M124.6 249.9l14.4 40.4 38.7-18.4-18.4 38.7 40.3 14.3-40.3 14.4 18.4 38.7-38.7-18.4-14.4 40.3-14.3-40.3L71.6 378 90 339.3l-40.4-14.4L90 310.6l-18.4-38.7 38.7 18.4 14.3-40.4M874.6 249.9l14.4 40.4 38.7-18.4-18.4 38.7 40.3 14.3-40.3 14.4 18.4 38.7-38.7-18.4-14.4 40.3-14.3-40.3-38.7 18.4 18.4-38.7-40.4-14.4 40.4-14.3-18.4-38.7 38.7 18.4 14.3-40.4M499.7 18.7 514 59.1l38.7-18.4-18.4 38.7 40.4 14.3-40.4 14.4 18.4 38.7-38.7-18.4-14.3 40.3-14.4-40.3-38.7 18.4 18.4-38.7-40.3-14.4L465 79.4l-18.4-38.7 38.7 18.4 14.4-40.4M499.7 481.2l14.3 40.3 38.7-18.4-18.4 38.7 40.4 14.4-40.4 14.3 18.4 38.7-38.7-18.4-14.3 40.4-14.4-40.4-38.7 18.4 18.4-38.7-40.3-14.3 40.3-14.4-18.4-38.7 38.7 18.4 14.4-40.3"/>
</svg>
